<?xml version="1.0" standalone="no"?><svg xmlns:xlink="http://www.w3.org/1999/xlink" xmlns="http://www.w3.org/2000/svg" viewBox="0 0 1000 583.3361386971891" preserveAspectRatio="xMaxYMax slice"><g transform="scale(1.3465746507322)"><rect x="0" y="0" width="742.6285714285715" height="433.20000000000005" fill="#ffffff"/><rect x="0" y="0" width="61.89" height="61.89" fill="#ddffdf"/><polygon points="0,0 61.89,61.89 0,61.89" fill="#f5e7ae"/><rect x="61.89" y="0" width="61.89" height="61.89" fill="#e7ffe8"/><polygon points="123.78,0 123.78,61.89 61.89,61.89" fill="#88ff8e"/><rect x="123.77" y="0" width="61.89" height="61.89" fill="#42ff4b"/><polygon points="123.77,0 185.66,0 185.66,61.89" fill="#b8ffbc"/><rect x="185.66" y="0" width="61.89" height="61.89" fill="#f9f2d2"/><polygon points="185.66,0 247.55,0 185.66,61.89" fill="#4bff54"/><rect x="247.54" y="0" width="61.89" height="61.89" fill="#40ff49"/><polygon points="247.54,0 309.43,61.89 247.54,61.89" fill="#d3ffd5"/><rect x="309.43" y="0" width="61.89" height="61.89" fill="#57ff5f"/><polygon points="309.43,0 371.32,0 371.32,61.89" fill="#dbffdd"/><rect x="371.31" y="0" width="61.89" height="61.89" fill="#ebcf5e"/><polygon points="433.2,0 433.2,61.89 371.31,61.89" fill="#faf3d6"/><rect x="433.2" y="0" width="61.89" height="61.89" fill="#e3bc1f"/><polygon points="433.2,0 495.09,61.89 433.2,61.89" fill="#f9f1d0"/><rect x="495.09" y="0" width="61.89" height="61.89" fill="#53ff5b"/><polygon points="495.09,0 556.98,0 556.98,61.89" fill="#eace5a"/><rect x="556.97" y="0" width="61.89" height="61.89" fill="#e0ffe1"/><polygon points="618.86,0 618.86,61.89 556.97,61.89" fill="#8fff95"/><rect x="618.86" y="0" width="61.89" height="61.89" fill="#e4be24"/><polygon points="618.86,0 680.75,0 618.86,61.89" fill="#a2ffa7"/><rect x="680.74" y="0" width="61.89" height="61.89" fill="#f0db87"/><polygon points="742.63,0 742.63,61.89 680.74,61.89" fill="#a9ffad"/><rect x="0" y="61.89" width="61.89" height="61.89" fill="#75ff7c"/><polygon points="0,61.89 61.89,61.89 61.89,123.78" fill="#9fffa4"/><rect x="61.89" y="61.89" width="61.89" height="61.89" fill="#a5ffa9"/><polygon points="123.78,61.89 123.78,123.78 61.89,123.78" fill="#f2e098"/><rect x="123.77" y="61.89" width="61.89" height="61.89" fill="#edffee"/><polygon points="123.77,61.89 185.66,61.89 185.66,123.78" fill="#f7edc3"/><rect x="185.66" y="61.89" width="61.89" height="61.89" fill="#e4ffe5"/><polygon points="185.66,61.89 247.55,123.78 185.66,123.78" fill="#afffb3"/><rect x="247.54" y="61.89" width="61.89" height="61.89" fill="#c1ffc4"/><polygon points="247.54,61.89 309.43,61.89 247.54,123.78" fill="#fcf9ea"/><rect x="309.43" y="61.89" width="61.89" height="61.89" fill="#eed87b"/><polygon points="371.32,61.89 371.32,123.78 309.43,123.78" fill="#e4ffe5"/><rect x="371.31" y="61.89" width="61.89" height="61.89" fill="#e9ca4e"/><polygon points="371.31,61.89 433.2,123.78 371.31,123.78" fill="#d1ffd3"/><rect x="433.2" y="61.89" width="61.89" height="61.89" fill="#f4e6ab"/><polygon points="433.2,61.89 495.09,61.89 495.09,123.78" fill="#58ff60"/><rect x="495.09" y="61.89" width="61.89" height="61.89" fill="#caffcd"/><polygon points="495.09,61.89 556.98,61.89 556.98,123.78" fill="#a3ffa8"/><rect x="556.97" y="61.89" width="61.89" height="61.89" fill="#48ff51"/><polygon points="556.97,61.89 618.86,61.89 556.97,123.78" fill="#e5ffe6"/><rect x="618.86" y="61.89" width="61.89" height="61.89" fill="#d9ffdb"/><polygon points="618.86,61.89 680.75,61.89 680.75,123.78" fill="#e3bd21"/><rect x="680.74" y="61.89" width="61.89" height="61.89" fill="#ecd267"/><polygon points="680.74,61.89 742.63,61.89 742.63,123.78" fill="#eeffef"/><rect x="0" y="123.77" width="61.89" height="61.89" fill="#82ff88"/><polygon points="0,123.77 61.89,123.77 61.89,185.66" fill="#f4fff4"/><rect x="61.89" y="123.77" width="61.89" height="61.89" fill="#f7ecbf"/><polygon points="123.78,123.77 123.78,185.66 61.89,185.66" fill="#e6c337"/><rect x="123.77" y="123.77" width="61.89" height="61.89" fill="#edd46f"/><polygon points="123.77,123.77 185.66,185.66 123.77,185.66" fill="#e8c949"/><rect x="185.66" y="123.77" width="61.89" height="61.89" fill="#f6fff6"/><polygon points="185.66,123.77 247.55,123.77 247.55,185.66" fill="#3dff46"/><rect x="247.54" y="123.77" width="61.89" height="61.89" fill="#ebcf5f"/><polygon points="247.54,123.77 309.43,185.66 247.54,185.66" fill="#b8ffbc"/><rect x="309.43" y="123.77" width="61.89" height="61.89" fill="#40ff49"/><polygon points="371.32,123.77 371.32,185.66 309.43,185.66" fill="#eacd59"/><rect x="371.31" y="123.77" width="61.89" height="61.89" fill="#fcf9e9"/><polygon points="371.31,123.77 433.2,185.66 371.31,185.66" fill="#58ff60"/><rect x="433.2" y="123.77" width="61.89" height="61.89" fill="#9bff9f"/><polygon points="495.09,123.77 495.09,185.66 433.2,185.66" fill="#9aff9f"/><rect x="495.09" y="123.77" width="61.89" height="61.89" fill="#f7edc2"/><polygon points="556.98,123.77 556.98,185.66 495.09,185.66" fill="#e8c846"/><rect x="556.97" y="123.77" width="61.89" height="61.89" fill="#aeffb2"/><polygon points="618.86,123.77 618.86,185.66 556.97,185.66" fill="#f3e3a0"/><rect x="618.86" y="123.77" width="61.89" height="61.89" fill="#bfffc2"/><polygon points="618.86,123.77 680.75,123.77 618.86,185.66" fill="#eed674"/><rect x="680.74" y="123.77" width="61.89" height="61.89" fill="#fcf8e8"/><polygon points="742.63,123.77 742.63,185.66 680.74,185.66" fill="#7aff80"/><rect x="0" y="185.66" width="61.89" height="61.89" fill="#76ff7d"/><polygon points="0,185.66 61.89,185.66 0,247.55" fill="#eed77b"/><rect x="61.89" y="185.66" width="61.89" height="61.89" fill="#63ff6b"/><polygon points="61.89,185.66 123.78,185.66 61.89,247.55" fill="#fffefd"/><rect x="123.77" y="185.66" width="61.89" height="61.89" fill="#ecd166"/><polygon points="123.77,185.66 185.66,247.55 123.77,247.55" fill="#79ff80"/><rect x="185.66" y="185.66" width="61.89" height="61.89" fill="#cdffd0"/><polygon points="247.55,185.66 247.55,247.55 185.66,247.55" fill="#b2ffb6"/><rect x="247.54" y="185.66" width="61.89" height="61.89" fill="#f4e5a6"/><polygon points="247.54,185.66 309.43,185.66 247.54,247.55" fill="#e8c94b"/><rect x="309.43" y="185.66" width="61.89" height="61.89" fill="#e2bb1a"/><polygon points="309.43,185.66 371.32,185.66 309.43,247.55" fill="#f9fff9"/><rect x="371.31" y="185.66" width="61.89" height="61.89" fill="#37ff40"/><polygon points="371.31,185.66 433.2,185.66 371.31,247.55" fill="#92ff98"/><rect x="433.2" y="185.66" width="61.89" height="61.89" fill="#e8c847"/><polygon points="433.2,185.66 495.09,247.55 433.2,247.55" fill="#fefcf4"/><rect x="495.09" y="185.66" width="61.89" height="61.89" fill="#e8c847"/><polygon points="495.09,185.66 556.98,185.66 556.98,247.55" fill="#67ff6e"/><rect x="556.97" y="185.66" width="61.89" height="61.89" fill="#7eff84"/><polygon points="556.97,185.66 618.86,185.66 556.97,247.55" fill="#f6e9b5"/><rect x="618.86" y="185.66" width="61.89" height="61.89" fill="#91ff96"/><polygon points="680.75,185.66 680.75,247.55 618.86,247.55" fill="#3cff45"/><rect x="680.74" y="185.66" width="61.89" height="61.89" fill="#e6c43a"/><polygon points="680.74,185.66 742.63,185.66 742.63,247.55" fill="#e7c63f"/><rect x="0" y="247.54" width="61.89" height="61.89" fill="#abffaf"/><polygon points="0,247.54 61.89,309.43 0,309.43" fill="#f9fff9"/><rect x="61.89" y="247.54" width="61.89" height="61.89" fill="#e7c63f"/><polygon points="61.89,247.54 123.78,247.54 61.89,309.43" fill="#f9f1d0"/><rect x="123.77" y="247.54" width="61.89" height="61.89" fill="#62ff6a"/><polygon points="123.77,247.54 185.66,247.54 123.77,309.43" fill="#eacc54"/><rect x="185.66" y="247.54" width="61.89" height="61.89" fill="#e3bc1f"/><polygon points="185.66,247.54 247.55,309.43 185.66,309.43" fill="#faf3d6"/><rect x="247.54" y="247.54" width="61.89" height="61.89" fill="#fefdf9"/><polygon points="247.54,247.54 309.43,247.54 247.54,309.43" fill="#e5c232"/><rect x="309.43" y="247.54" width="61.89" height="61.89" fill="#f5fff5"/><polygon points="371.32,247.54 371.32,309.43 309.43,309.43" fill="#62ff6a"/><rect x="371.31" y="247.54" width="61.89" height="61.89" fill="#46ff4f"/><polygon points="371.31,247.54 433.2,309.43 371.31,309.43" fill="#c6ffc9"/><rect x="433.2" y="247.54" width="61.89" height="61.89" fill="#40ff49"/><polygon points="433.2,247.54 495.09,247.54 495.09,309.43" fill="#eacd56"/><rect x="495.09" y="247.54" width="61.89" height="61.89" fill="#e8c847"/><polygon points="495.09,247.54 556.98,247.54 556.98,309.43" fill="#e7c641"/><rect x="556.97" y="247.54" width="61.89" height="61.89" fill="#b3ffb7"/><polygon points="618.86,247.54 618.86,309.43 556.97,309.43" fill="#edd572"/><rect x="618.86" y="247.54" width="61.89" height="61.89" fill="#66ff6e"/><polygon points="618.86,247.54 680.75,247.54 680.75,309.43" fill="#faf2d5"/><rect x="680.74" y="247.54" width="61.89" height="61.89" fill="#e3bd21"/><polygon points="680.74,247.54 742.63,247.54 742.63,309.43" fill="#e5ffe6"/><rect x="0" y="309.43" width="61.89" height="61.89" fill="#f5e6ac"/><polygon points="61.89,309.43 61.89,371.32 0,371.32" fill="#afffb3"/><rect x="61.89" y="309.43" width="61.89" height="61.89" fill="#f9f1d1"/><polygon points="61.89,309.43 123.78,309.43 61.89,371.32" fill="#f9f1d1"/><rect x="123.77" y="309.43" width="61.89" height="61.89" fill="#f3e3a1"/><polygon points="123.77,309.43 185.66,371.32 123.77,371.32" fill="#f2e097"/><rect x="185.66" y="309.43" width="61.89" height="61.89" fill="#51ff5a"/><polygon points="185.66,309.43 247.55,309.43 247.55,371.32" fill="#40ff49"/><rect x="247.54" y="309.43" width="61.89" height="61.89" fill="#fdf9ed"/><polygon points="247.54,309.43 309.43,309.43 247.54,371.32" fill="#f6eab9"/><rect x="309.43" y="309.43" width="61.89" height="61.89" fill="#ecd165"/><polygon points="309.43,309.43 371.32,309.43 309.43,371.32" fill="#e8ffe9"/><rect x="371.31" y="309.43" width="61.89" height="61.89" fill="#ebcf5f"/><polygon points="371.31,309.43 433.2,371.32 371.31,371.32" fill="#edd46d"/><rect x="433.2" y="309.43" width="61.89" height="61.89" fill="#fcf7e3"/><polygon points="433.2,309.43 495.09,309.43 433.2,371.32" fill="#fdfbf1"/><rect x="495.09" y="309.43" width="61.89" height="61.89" fill="#b8ffbb"/><polygon points="556.98,309.43 556.98,371.32 495.09,371.32" fill="#fdfbf0"/><rect x="556.97" y="309.43" width="61.89" height="61.89" fill="#f7ebbd"/><polygon points="618.86,309.43 618.86,371.32 556.97,371.32" fill="#a9ffae"/><rect x="618.86" y="309.43" width="61.89" height="61.89" fill="#edd36c"/><polygon points="680.75,309.43 680.75,371.32 618.86,371.32" fill="#e4bf29"/><rect x="680.74" y="309.43" width="61.89" height="61.89" fill="#f1de91"/><polygon points="742.63,309.43 742.63,371.32 680.74,371.32" fill="#44ff4d"/><rect x="0" y="371.31" width="61.89" height="61.89" fill="#ecd269"/><polygon points="0,371.31 61.89,371.31 0,433.2" fill="#eed674"/><rect x="61.89" y="371.31" width="61.89" height="61.89" fill="#94ff99"/><polygon points="61.89,371.31 123.78,371.31 61.89,433.2" fill="#e7ffe8"/><rect x="123.77" y="371.31" width="61.89" height="61.89" fill="#86ff8c"/><polygon points="185.66,371.31 185.66,433.2 123.77,433.2" fill="#f6eaba"/><rect x="185.66" y="371.31" width="61.89" height="61.89" fill="#e0ffe2"/><polygon points="185.66,371.31 247.55,371.31 247.55,433.2" fill="#e2ba19"/><rect x="247.54" y="371.31" width="61.89" height="61.89" fill="#4aff53"/><polygon points="247.54,371.31 309.43,371.31 309.43,433.2" fill="#e7c53c"/><rect x="309.43" y="371.31" width="61.89" height="61.89" fill="#e2bb1b"/><polygon points="309.43,371.31 371.32,433.2 309.43,433.2" fill="#5cff64"/><rect x="371.31" y="371.31" width="61.89" height="61.89" fill="#fcf8e7"/><polygon points="371.31,371.31 433.2,433.2 371.31,433.2" fill="#78ff7f"/><rect x="433.2" y="371.31" width="61.89" height="61.89" fill="#a2ffa7"/><polygon points="433.2,371.31 495.09,371.31 495.09,433.2" fill="#e7c641"/><rect x="495.09" y="371.31" width="61.89" height="61.89" fill="#efd981"/><polygon points="495.09,371.31 556.98,433.2 495.09,433.2" fill="#c7ffc9"/><rect x="556.97" y="371.31" width="61.89" height="61.89" fill="#69ff71"/><polygon points="556.97,371.31 618.86,433.2 556.97,433.2" fill="#f9f1d0"/><rect x="618.86" y="371.31" width="61.89" height="61.89" fill="#60ff68"/><polygon points="618.86,371.31 680.75,371.31 618.86,433.2" fill="#d0ffd3"/><rect x="680.74" y="371.31" width="61.89" height="61.89" fill="#aaffae"/><polygon points="680.74,371.31 742.63,371.31 742.63,433.2" fill="#f7ecc1"/></g></svg>